# xmcd
#
# Track frame offsets:
#	150
#	10395
#	26655
#	40093
#	57848
#	74083
#	86173
#	97853
#	114858
#	125433
#	142110
#	152745
#
# Disc length: 2245 seconds
# Revision: 2
# Processed by: cddbd v1.5.2PL0 Copyright (c) Steve Scherf et al.
# Submitted via: dBpowerAMP V12.0
#
DISCID=9f08c30c
DTITLE=The Andy Owens Project - Kerosene Circuit
DYEAR=1992
DGENRE=Bluegrass
TTITLE0=Delta Queen
TTITLE1=Kerosene Circuit
TTITLE2=Blackjack Oak
TTITLE3=Bitter Memory
TTITLE4=Porch Steps on Highway 29
TTITLE5=Dixie Home
TTITLE6=Old Cumberland Trains
TTITLE7=Body and Soul
TTITLE8=Rebel Dreams
TTITLE9=Another Lonely Morning
TTITLE10=St. Peter Won't You Let Me In
TTITLE11=You're Not Me
EXTD=
EXTT0=
EXTT1=
EXTT2=
EXTT3=
EXTT4=
EXTT5=
EXTT6=
EXTT7=
EXTT8=
EXTT9=
EXTT10=
EXTT11=
PLAYORDER=
